<svg width="22" height="10" viewBox="0 0 22 10" fill="none" xmlns="http://www.w3.org/2000/svg">
<g id="Layer 3">
<g id="Layer 1">
<path id="Vector" d="M10.9516 0L9.85993 2.06891L8.80347 4.13782C9.5606 5.59046 10.2297 6.84941 10.978 8.27563L13.1526 4.13782L12.0345 2.06891L10.9516 0Z" fill="white"/>
<path id="Vector_2" d="M21.9123 7.05177L21.8067 6.99015L21.701 6.91972L21.5866 6.85809L21.481 6.78766L21.3665 6.72603L21.2609 6.6644L21.1552 6.60278L21.0408 6.54115L20.9263 6.47952L20.8207 6.4267L20.7062 6.36507L20.5918 6.30345L20.4861 6.24182L20.3717 6.189L20.2572 6.12737L20.1428 6.07454L20.0283 6.02172L19.9139 5.9689L19.7994 5.90727L19.7378 5.88086L18.7253 8.09063L18.7694 8.10824L18.875 8.15226L18.9718 8.20508L19.0775 8.2579L19.1743 8.30192L19.2712 8.35475L19.3768 8.40757L19.4737 8.46039L19.5705 8.50441L19.6674 8.55724L19.773 8.61886L19.8698 8.67169L19.9667 8.72451L20.0635 8.77733L20.1604 8.83015L20.2572 8.89178L20.3541 8.94461L20.4509 8.99743L20.5477 9.05906L20.6446 9.12068L20.7326 9.17351L22.0004 7.1046L21.9123 7.05177Z" fill="white"/>
<path id="Vector_3" d="M17.1763 4.89502L17.053 4.8598L16.9298 4.82459L16.8065 4.78057L16.6833 4.74535L16.56 4.71894L16.428 4.68373L16.3047 4.64851L16.1815 4.6133L16.0582 4.58688L15.9261 4.55167L15.8029 4.51645L15.6796 4.49004L15.5476 4.46363L15.4243 4.43722L15.2923 4.402L15.169 4.37559L15.037 4.35798L14.9137 4.33157L14.8433 4.31396L14.4031 6.69981L14.4559 6.70862L14.5703 6.73503L14.6848 6.75264L14.7904 6.77905L14.9049 6.80546L15.0193 6.83187L15.1338 6.85828L15.2394 6.88469L15.3539 6.9023L15.4683 6.93752L15.574 6.96393L15.6884 6.99034L15.8029 7.02556L15.9085 7.05197L16.0142 7.07838L16.1286 7.11359L16.2343 7.14881L16.3487 7.17522L16.4544 7.21044L16.5688 7.24565L16.6128 7.26326L17.3436 4.94784L17.2995 4.93904L17.1763 4.89502Z" fill="white"/>
<path id="Vector_4" d="M7.12228 4.30519L6.99022 4.3316L6.85816 4.35801L6.73491 4.37562L6.60285 4.40203L6.4796 4.43725L6.34754 4.46366L6.22429 4.49007L6.09223 4.51648L5.96897 4.5517L5.84572 4.58691L5.72246 4.61333L5.59041 4.64854L5.46715 4.68376L5.3439 4.71897L5.22064 4.74538L5.09739 4.7806L4.97414 4.82462L4.84208 4.85983L4.72763 4.89505L4.6748 4.91266L5.40553 7.22807L5.44074 7.21047L5.55519 7.17525L5.66084 7.14884L5.76648 7.11362L5.88093 7.07841L5.99538 7.052L6.10103 7.02559L6.21548 6.99037L6.32113 6.96396L6.43558 6.93755L6.54122 6.90233L6.65567 6.88472L6.77012 6.85831L6.88458 6.8319L6.99022 6.80549L7.10467 6.77908L7.21912 6.75267L7.33357 6.73506L7.44802 6.70865L7.55367 6.69104L7.6153 6.68223L7.1751 4.29639L7.12228 4.30519Z" fill="white"/>
<path id="Vector_5" d="M2.21857 5.85452L2.10412 5.90734L1.98967 5.96897L1.87522 6.0218L1.76077 6.07462L1.64632 6.12744L1.53187 6.18907L1.41742 6.24189L1.30297 6.30352L1.19733 6.36515L1.08288 6.42677L0.968425 6.4796L0.862779 6.54122L0.748329 6.60285L0.642682 6.66448L0.528232 6.7261L0.422586 6.78773L0.308135 6.85816L0.202489 6.91979L0.0968425 6.99022L0 7.04304L1.27656 9.11195L1.3558 9.05913L1.45264 8.9975L1.54068 8.94468L1.63752 8.89186L1.73436 8.83023L1.8312 8.77741L1.93685 8.72458L2.03369 8.67176L2.13054 8.61894L2.22738 8.55731L2.32422 8.50449L2.42106 8.46047L2.52671 8.40764L2.62355 8.35482L2.72039 8.302L2.82604 8.25798L2.92288 8.20515L3.02853 8.15233L3.12537 8.10831L3.23102 8.06429L3.28384 8.03788L2.2714 5.83691L2.21857 5.85452Z" fill="white"/>
</g>
</g>
</svg>
