<svg width="22" height="10" viewBox="0 0 22 10" fill="none" xmlns="http://www.w3.org/2000/svg">
<g id="Layer 4">
<g id="Layer 1">
<path id="Vector" d="M10.9516 9.75684L9.85993 7.68793L8.80347 5.61902C9.5606 4.16638 10.2297 2.90743 10.978 1.4812L13.1526 5.61902L12.0345 7.68793L10.9516 9.75684Z" fill="white"/>
<path id="Vector_2" d="M21.9123 2.70506L21.8067 2.76669L21.701 2.83712L21.5866 2.89875L21.481 2.96918L21.3665 3.03081L21.2609 3.09243L21.1552 3.15406L21.0408 3.21569L20.9263 3.27731L20.8207 3.33014L20.7062 3.39176L20.5918 3.45339L20.4861 3.51502L20.3717 3.56784L20.2572 3.62947L20.1428 3.68229L20.0283 3.73511L19.9139 3.78794L19.7994 3.84956L19.7378 3.87598L18.7253 1.66621L18.7694 1.6486L18.875 1.60458L18.9718 1.55176L19.0775 1.49893L19.1743 1.45491L19.2712 1.40209L19.3768 1.34927L19.4737 1.29644L19.5705 1.25242L19.6674 1.1996L19.773 1.13797L19.8698 1.08515L19.9667 1.03233L20.0635 0.979504L20.1604 0.926681L20.2572 0.865053L20.3541 0.812231L20.4509 0.759407L20.5477 0.69778L20.6446 0.636154L20.7326 0.58333L22.0004 2.65224L21.9123 2.70506Z" fill="white"/>
<path id="Vector_3" d="M17.1763 4.86182L17.053 4.89703L16.9298 4.93225L16.8065 4.97627L16.6833 5.01148L16.56 5.03789L16.428 5.07311L16.3047 5.10832L16.1815 5.14354L16.0582 5.16995L15.9261 5.20517L15.8029 5.24038L15.6796 5.26679L15.5476 5.29321L15.4243 5.31962L15.2923 5.35483L15.169 5.38124L15.037 5.39885L14.9137 5.42526L14.8433 5.44287L14.4031 3.05702L14.4559 3.04822L14.5703 3.02181L14.6848 3.0042L14.7904 2.97779L14.9049 2.95138L15.0193 2.92497L15.1338 2.89855L15.2394 2.87214L15.3539 2.85453L15.4683 2.81932L15.574 2.79291L15.6884 2.7665L15.8029 2.73128L15.9085 2.70487L16.0142 2.67846L16.1286 2.64324L16.2343 2.60803L16.3487 2.58161L16.4544 2.5464L16.5688 2.51118L16.6128 2.49358L17.3436 4.80899L17.2995 4.8178L17.1763 4.86182Z" fill="white"/>
<path id="Vector_4" d="M7.12228 5.45165L6.99022 5.42523L6.85816 5.39882L6.73491 5.38121L6.60285 5.3548L6.4796 5.31959L6.34754 5.29318L6.22429 5.26676L6.09223 5.24035L5.96897 5.20514L5.84572 5.16992L5.72246 5.14351L5.59041 5.10829L5.46715 5.07308L5.3439 5.03786L5.22064 5.01145L5.09739 4.97624L4.97414 4.93222L4.84208 4.897L4.72763 4.86179L4.6748 4.84418L5.40553 2.52876L5.44074 2.54637L5.55519 2.58159L5.66084 2.608L5.76648 2.64321L5.88093 2.67843L5.99538 2.70484L6.10103 2.73125L6.21548 2.76647L6.32113 2.79288L6.43558 2.81929L6.54122 2.8545L6.65567 2.87211L6.77012 2.89852L6.88458 2.92494L6.99022 2.95135L7.10467 2.97776L7.21912 3.00417L7.33357 3.02178L7.44802 3.04819L7.55367 3.0658L7.6153 3.0746L7.1751 5.46045L7.12228 5.45165Z" fill="white"/>
<path id="Vector_5" d="M2.21857 3.90231L2.10412 3.84949L1.98967 3.78786L1.87522 3.73504L1.76077 3.68222L1.64632 3.62939L1.53187 3.56777L1.41742 3.51494L1.30297 3.45332L1.19733 3.39169L1.08288 3.33006L0.968425 3.27724L0.862779 3.21561L0.748329 3.15399L0.642682 3.09236L0.528232 3.03073L0.422586 2.9691L0.308135 2.89867L0.202489 2.83705L0.0968425 2.76662L0 2.71379L1.27656 0.644883L1.3558 0.697707L1.45264 0.759333L1.54068 0.812157L1.63752 0.86498L1.73436 0.926607L1.8312 0.97943L1.93685 1.03225L2.03369 1.08508L2.13054 1.1379L2.22738 1.19953L2.32422 1.25235L2.42106 1.29637L2.52671 1.34919L2.62355 1.40202L2.72039 1.45484L2.82604 1.49886L2.92288 1.55168L3.02853 1.6045L3.12537 1.64852L3.23102 1.69254L3.28384 1.71896L2.2714 3.91992L2.21857 3.90231Z" fill="white"/>
</g>
</g>
</svg>
